<svg id="SvgjsSvg1001" width="288" height="288" xmlns="http://www.w3.org/2000/svg" version="1.1" xmlns:xlink="http://www.w3.org/1999/xlink" xmlns:svgjs="http://svgjs.com/svgjs"><defs id="SvgjsDefs1002"></defs><g id="SvgjsG1008"><svg xmlns="http://www.w3.org/2000/svg" enable-background="new 0 0 1000 1000" viewBox="0 0 1000 1000" width="288" height="288"><g transform="matrix(.1 0 0 -.1 0 395)" fill="#14418a" class="color000 svgShape"><path d="M1748 2709c-51.8-15.3-101.6-26.8-107.4-28.8-44.1-1.9-256.9-170.6-310.6-245.4-70.9-97.8-726.6-1464.6-830.1-1733C333.2 272.4 271.9-26.7 166.4-933.4c-90.1-763-90.1-814.8 9.6-1019.9 61.4-124.6 218.5-299.1 324-358.5 103.5-61.3 2287.1-778.3 2421.2-795.6 228.1-32.6 439 46 598.1 218.5 78.6 88.2 126.5 189.8 437.1 914.4 502.3 1175.2 561.7 1364.9 764.9 2497.9 138 776.4 143.8 845.4 65.2 1050.5-51.8 134.2-218.5 324-343.1 385.3-47.9 24.9-592.4 207-1209.7 404.5C2022.1 2751.2 1949.3 2768.4 1748 2709zM2211.9 2248.9c164.9-76.7 226.2-230 136.1-345.1-115-145.7-396.8-139.9-555.9 11.5-63.3 59.4-72.8 80.5-72.8 155.3C1719.2 2268.1 1974.2 2360.1 2211.9 2248.9zM2812 1275c149.5-72.9 214.7-232 141.9-337.4-44.1-61.3-172.5-116.9-276-116.9-95.9 0-256.9 67.1-312.5 128.4-55.6 63.3-72.9 155.3-42.2 226.2C2386.4 1330.6 2608.7 1374.7 2812 1275zM4652.3 1255.9c0-15.3-120.8-306.7-270.3-648C4061.9-130.2 4014-249 3898.9-626.7c-132.3-435.2-174.5-619.2-279.9-1255.7-126.5-747.6-113.1-690.1-157.2-690.1-19.2 0-36.4 11.5-36.4 24.9 0 11.5 47.9 301 105.4 642.2 57.5 339.3 105.4 659.5 105.4 709.3 0 138-47.9 274.2-141.9 400.7-101.6 138-218.5 218.5-410.2 281.8C962 176.6 875.7 207.2 950.5 253.2c9.6 5.8 538.7-159.1 1175.2-366.2 1050.5-343.1 1167.5-377.6 1290.2-377.6 105.4 0 157.2 11.5 249.2 51.7 209 97.8 233.9 136.1 596.2 970 249.2 577 331.6 749.6 358.5 749.6C4637 1280.8 4652.3 1269.3 4652.3 1255.9zM3396.7 305c174.5-78.6 239.6-260.7 134.2-373.8-61.3-67.1-124.6-88.2-255-88.2-333.6 1.9-496.5 308.6-245.4 462C3109.1 352.9 3291.2 352.9 3396.7 305zM1146-274c147.6-49.8 266.5-184 266.5-301 0-84.4-26.8-130.4-95.8-166.8-178.3-92-479.3 63.3-511.9 264.6C779.9-316.1 954.3-210.7 1146-274zM4268.9-469.5c0-174.5-157.2-623-224.3-642.2-40.3-11.5-28.8 149.5 23 329.7 51.8 178.3 151.4 394.9 182.1 394.9C4261.3-387.1 4268.9-423.5 4268.9-469.5zM2938.5-854.8c116.9-53.7 199.4-153.4 212.8-256.9 7.7-63.3 1.9-84.4-44.1-136.1-65.2-70.9-155.3-92-268.4-61.3-272.2 72.9-396.8 366.2-203.2 469.7C2712.3-797.3 2827.3-803.1 2938.5-854.8zM1945.4-1261.3c178.3-72.8 281.8-264.6 214.7-393-46-82.4-195.5-116.9-327.8-72.8-260.7 88.2-354.7 368.1-161 473.5C1726.9-1222.9 1863-1226.7 1945.4-1261.3zM1019.5-1719.4c216.6-124.6 243.5-364.2 51.8-444.8-237.7-99.7-580.9 187.9-473.5 396.8C661-1644.7 854.6-1621.7 1019.5-1719.4zM2685.4-2231.3c109.3-32.6 253.1-176.4 270.3-268.4 26.8-145.7-99.7-256.9-264.5-235.8-228.1 30.7-417.9 262.6-337.4 410.2 30.7 55.6 138 117 207 117C2585.8-2208.3 2641.3-2219.8 2685.4-2231.3zM7968.8 788.1c-26.8-3.8-500.3-107.3-1054.4-228.1-759.1-164.9-1037.1-233.9-1131.1-278-230-107.4-465.8-314.4-598.1-527.2-72.8-113.1-548.3-1290.2-582.8-1441.6-44.1-186-40.3-531 9.6-738.1 55.6-232 937.4-2001.4 1067.8-2141.4 141.9-153.4 410.2-268.4 621.1-268.4 47.9 0 544.5 113.1 1102.3 251.1 1096.6 270.3 1175.1 295.2 1409 473.5 69 51.8 184 157.2 253.1 232 118.9 128.4 151.4 187.9 435.2 761.1 168.7 343.2 325.9 680.6 347 749.6 74.8 243.4 69 582.8-13.4 839.7-15.3 53.7-251.1 509.9-521.4 1016-427.5 803.2-504.2 933.6-598.1 1027.5C8520.9 713.3 8202.7 828.4 7968.8 788.1zM8195 236c235.8-99.7 289.5-364.2 92-458.2-162.9-76.7-381.5 5.7-456.3 174.5-44.1 97.8-34.5 172.5 28.8 232C7947.7 266.7 8074.3 285.8 8195 236zM6718.9-208.8c82.4-46 157.2-159.1 157.2-235.8 0-65.2-53.7-151.4-115-182.1-63.3-32.6-203.2-38.3-274.1-11.5-84.4 32.6-184.1 136.1-205.1 214.7C6220.5-197.3 6477.4-70.7 6718.9-208.8zM6226.2-1205.6c400.7-786 481.2-929.8 563.6-1014.1 162.9-164.9 419.8-253 632.6-218.5 53.7 9.6 517.6 116.9 1033.3 237.7 513.8 122.7 947 222.4 962.3 222.4 32.6 0 55.6-36.4 34.5-57.5-9.6-9.6-452.4-120.8-985.4-247.3-532.9-128.4-1014.1-251.1-1069.7-274.1-214.7-84.4-481.2-297.1-628.8-496.5-36.4-49.8-184.1-354.7-329.7-680.6-145.7-324-276.1-594.3-287.6-598.1-69-23-28.8 95.8 214.7 638.4 285.6 632.6 318.2 736.1 318.2 1021.8 0 352.7-7.7 375.7-529.1 1409-258.8 513.8-463.9 943.2-458.2 952.8 5.7 11.5 23 19.2 36.4 19.2C5747-291.2 5967.4-703.4 6226.2-1205.6zM5599.4-891.2c28.8-40.3 42.2-90.1 46-195.6 7.7-155.3-15.3-255-72.8-306.7-53.7-47.9-126.5-11.5-164.9 80.5-34.5 78.6-40.3 295.2-11.5 371.9C5444.1-818.4 5530.3-797.3 5599.4-891.2zM9017.5-1232.5c151.4-72.8 228.1-226.2 170.6-347-120.8-253.1-592.4-113.1-592.4 176.4 0 82.4 53.7 161 130.4 191.7C8797-1180.7 8933.1-1192.2 9017.5-1232.5zM5332.9-1508.5c82.4-162.9 36.4-465.8-74.8-500.4-78.6-24.9-164.9 140-164.9 310.6C5093.2-1454.9 5244.7-1334.1 5332.9-1508.5zM7395.6-1615.9c274.2-92 339.3-396.8 105.4-486.9-140-53.7-279.9-11.5-391.1 113.1-115 132.3-92 287.6 53.7 360.4C7242.3-1589.1 7305.5-1587.1 7395.6-1615.9zM5058.7-2114.3c23-42.2 34.5-109.3 34.5-195.5 0-214.7-76.7-335.5-172.5-268.4-63.3 44.1-95.8 141.9-95.8 281.8 0 140 19.2 203.2 76.7 260.7 36.4 36.4 46 38.3 82.4 13.4C5007-2035.7 5041.5-2077.9 5058.7-2114.3zM6182.1-2097.1c59.4-65.2 80.5-138 80.5-276.1 0-364.2-243.5-391.1-279.9-32.6-13.4 128.4 13.4 249.2 69 308.6C6101.6-2043.4 6130.4-2043.4 6182.1-2097.1zM9349.1-2530.3c164.9-132.3-337.4-456.3-538.7-348.9-69 38.3-30.7 155.3 82.4 247.3 78.6 63.3 260.7 134.2 343.1 136.1C9276.3-2495.8 9326.1-2511.2 9349.1-2530.3zM5942.5-2762.3c78.6-174.4 34.5-465.8-74.8-492.7-90.1-23-162.9 101.6-164.9 285.6C5697.1-2681.8 5848.6-2551.4 5942.5-2762.3zM5654.9-3343.2c70.9-145.7 59.4-375.7-21.1-477.4-26.8-32.6-47.9-38.3-86.3-28.8-70.9 17.3-113.1 111.2-124.6 272.2-7.7 109.3 0 153.4 32.6 226.2 36.4 84.4 44.1 90.1 101.6 84.4C5608.9-3270.3 5626.2-3285.6 5654.9-3343.2zM7230.8-4056.3c28.8-42.2 28.8-51.8 1.9-103.5-105.4-203.2-548.3-348.9-596.2-195.5-42.2 132.3 247.3 341.2 473.5 343.1C7186.7-4010.3 7205.8-4018 7230.8-4056.3z" fill="#14418a" class="color000 svgShape"></path></g></svg></g></svg>